<?xml version="1.0" encoding="UTF-8" standalone="no"?>
<!-- Generator: Adobe Illustrator 27.3.1, SVG Export Plug-In . SVG Version: 6.00 Build 0)  -->

<svg
   version="1.1"
   id="Layer_1"
   x="0px"
   y="0px"
   viewBox="0 0 999.99996 231.21555"
   xml:space="preserve"
   sodipodi:docname="Kenvue.svg"
   width="1000"
   height="231.21555"
   inkscape:version="1.2.2 (732a01da63, 2022-12-09)"
   xmlns:inkscape="http://www.inkscape.org/namespaces/inkscape"
   xmlns:sodipodi="http://sodipodi.sourceforge.net/DTD/sodipodi-0.dtd"
   xmlns="http://www.w3.org/2000/svg"
   xmlns:svg="http://www.w3.org/2000/svg"><defs
   id="defs2121">
	
	
	
	
	
	
	
	
	
</defs><sodipodi:namedview
   id="namedview2119"
   pagecolor="#ffffff"
   bordercolor="#111111"
   borderopacity="1"
   inkscape:showpageshadow="0"
   inkscape:pageopacity="0"
   inkscape:pagecheckerboard="1"
   inkscape:deskcolor="#d1d1d1"
   showgrid="false"
   inkscape:zoom="0.6"
   inkscape:cx="450.83333"
   inkscape:cy="121.66667"
   inkscape:window-width="1366"
   inkscape:window-height="705"
   inkscape:window-x="-8"
   inkscape:window-y="-8"
   inkscape:window-maximized="1"
   inkscape:current-layer="Layer_1" />
<g
   id="g2634"
   style="fill:#019881;fill-opacity:1"><path
     d="M 0,2.9010734 V 228.16942 H 93.124456 V 115.60777 2.9010734 Z"
     id="path2098"
     style="stroke-width:1.45054;fill:#019881;fill-opacity:1" /><path
     d="M 203.36525,115.60777 230.49028,75.137801 C 237.3078,64.984044 240.64404,55.845663 240.64404,44.386423 240.64404,20.742675 221.64201,0 194.66203,0 175.9501,0 162.46011,8.8482739 150.85582,26.834929 l -57.731364,88.772841 57.731364,88.77285 c 11.60429,17.98666 25.09428,26.83493 43.80621,26.83493 26.97998,0 45.98201,-20.74267 45.98201,-44.38642 0,-11.45924 -3.33624,-20.59762 -10.15376,-30.75138 z"
     id="path2100"
     style="stroke-width:1.45054;fill:#019881;fill-opacity:1" /><path
     d="m 480.99797,58.746736 c -32.49202,0 -55.99072,26.109661 -55.99072,55.700614 0,30.31621 22.19321,55.4105 55.84567,55.4105 25.23933,0 44.24137,-14.36032 52.79953,-33.65245 h -26.97998 c -4.93183,7.39773 -13.05483,11.8944 -25.38439,11.8944 -17.40644,0 -28.57558,-9.57355 -31.76676,-24.51407 h 85.87178 c 0.43516,-2.90108 0.72526,-5.6571 0.72526,-9.42849 0,-28.140414 -20.45256,-55.410504 -55.12039,-55.410504 z m -0.14505,21.467944 c 17.55149,0 27.8503,9.573542 30.75137,24.07891 h -61.93791 c 3.48129,-14.650422 14.94053,-24.07891 31.18654,-24.07891 z"
     id="path2102"
     style="stroke-width:1.45054;fill:#019881;fill-opacity:1" /><path
     d="m 426.02263,61.502756 v -1.305483 h -29.88106 l -48.88308,52.799537 49.31824,55.55555 h 31.91181 v -1.30548 l -49.75341,-54.97534 z"
     id="path2104"
     style="stroke-width:1.45054;fill:#019881;fill-opacity:1" /><path
     d="M 322.59936,60.197273 V 168.55236 h 24.65913 v -55.7006 -52.799541 z"
     id="path2106"
     style="stroke-width:1.45054;fill:#019881;fill-opacity:1" /><path
     d="m 1000,114.01218 c 0,-27.995354 -20.45257,-55.265444 -55.26545,-55.265444 -32.49202,0 -55.99071,26.109661 -55.99071,55.700614 0,30.31621 22.19321,55.4105 55.84566,55.4105 25.23934,0 44.24137,-14.36032 52.79953,-33.65245 h -26.97998 c -4.93182,7.39773 -13.05483,11.8944 -25.38439,11.8944 -17.40644,0 -28.57557,-9.57355 -31.76675,-24.51407 h 85.87177 C 999.70989,120.5396 1000,117.78358 1000,114.01218 Z m -55.26545,-33.7975 c 17.5515,0 27.99536,9.573542 30.75138,24.07891 h -61.93792 c 3.48129,-14.650422 14.94053,-24.07891 31.18654,-24.07891 z"
     id="path2108"
     style="stroke-width:1.45054;fill:#019881;fill-opacity:1" /><path
     d="m 848.70902,121.70003 c 0,14.79547 -9.28343,25.09428 -24.94923,25.09428 -15.52074,0 -24.65912,-10.29881 -24.65912,-25.09428 V 60.052219 h -24.65913 v 63.098351 c 0,26.39976 18.85698,46.56222 48.73804,46.56222 30.46127,0 50.18857,-21.46794 50.18857,-46.56222 V 60.052219 h -24.65913 z"
     id="path2110"
     style="stroke-width:1.45054;fill:#019881;fill-opacity:1" /><path
     d="m 601.53757,58.746736 c -29.736,0 -50.47868,21.903105 -50.47868,47.142444 v 62.51813 h 24.65913 v -61.06759 c 0,-15.23064 9.28343,-25.52945 25.23933,-25.52945 15.95591,0 25.09429,10.29881 25.09429,25.52945 v 61.06759 h 24.65912 v -62.51813 c 0.14506,-26.254715 -17.8416,-47.142444 -49.17319,-47.142444 z"
     id="path2112"
     style="stroke-width:1.45054;fill:#019881;fill-opacity:1" /><path
     d="M 709.16739,122.57035 678.70612,60.052219 h -26.39977 l 55.84567,110.821001 h 1.16043 L 765.01306,60.052219 h -25.3844 z"
     id="path2114"
     style="stroke-width:1.45054;fill:#019881;fill-opacity:1" /></g>
</svg>
